<svg width="42" height="42" viewBox="0 0 42 42" fill="none" xmlns="http://www.w3.org/2000/svg">
<rect width="42" height="42" rx="21" fill="#433F48"/>
<path d="M37.05 20.4662V20.4162H37H35.8787C35.3567 17.3197 32.6499 14.95 29.3893 14.95C26.2523 14.95 23.6217 17.1421 22.9619 20.0662C21.7219 19.4496 20.2774 19.4496 19.0378 20.0662C18.3779 17.1425 15.748 14.9504 12.611 14.9504C9.35008 14.9504 6.64261 17.3197 6.12096 20.4165H5H4.95V20.4665V21.4509V21.5009H5H6.02271C6.02299 25.1125 8.97889 28.05 12.6114 28.05C16.2437 28.05 19.1997 25.1123 19.1997 21.5004C19.1997 21.4363 19.1953 21.371 19.1911 21.3079C19.1893 21.2813 19.1875 21.2551 19.1861 21.2295C20.3024 20.5022 21.6972 20.5015 22.8145 21.2291C22.8131 21.2537 22.8114 21.2788 22.8096 21.3043C22.8052 21.3686 22.8007 21.4349 22.8007 21.5004C22.8007 25.1123 25.757 28.05 29.3897 28.05C33.0218 28.05 35.977 25.1125 35.9773 21.5009H37H37.05V21.4509V20.4662ZM12.6114 26.9649C9.57951 26.9649 7.11293 24.5125 7.11293 21.4996C7.11293 18.4864 9.57916 16.034 12.6114 16.034C15.6432 16.034 18.1095 18.4864 18.1095 21.4996C18.1095 24.5129 15.6432 26.9649 12.6114 26.9649ZM29.3893 26.9649C26.3571 26.9649 23.8909 24.5125 23.8909 21.4996C23.8909 18.4864 26.3571 16.034 29.3893 16.034C32.4212 16.034 34.8871 18.4864 34.8871 21.4996C34.8867 24.5129 32.4208 26.9649 29.3893 26.9649Z" fill="#F1F1F1" stroke="#F1F1F1" stroke-width="0.1"/>
</svg>
