<svg width="42" height="42" viewBox="0 0 42 42" fill="none" xmlns="http://www.w3.org/2000/svg">
<rect width="42" height="42" rx="21" fill="#DA786A"/>
<path d="M30.0436 24.9725C30.0523 24.957 30.0521 24.9381 30.0431 24.9228C30.0341 24.9075 30.0177 24.8981 30 24.8981H23.0701C24.599 24.3052 25.8833 23.1883 26.701 21.7338L26.7012 21.7335C27.1424 20.9343 27.4139 20.0489 27.4979 19.1352C27.5819 18.2217 27.4766 17.3004 27.1889 16.4313C26.8351 15.2556 26.2606 14.2389 25.7305 13.499C25.4653 13.1289 25.2109 12.8276 25 12.6098C24.8947 12.501 24.7998 12.4126 24.7196 12.3469C24.6428 12.284 24.5761 12.2389 24.5247 12.2181L24.3086 12.0854C24.2918 12.0751 24.2705 12.0756 24.2542 12.0867L23.9904 12.2666L23.9898 12.2659L23.9831 12.2727C23.9012 12.3551 23.8476 12.4622 23.8302 12.578C23.8131 12.692 23.8318 12.8086 23.8838 12.911C24.0589 13.5388 24.2545 14.4199 24.2599 15.2828C24.2654 16.1487 24.0793 16.9857 23.5012 17.5339C23.2446 17.7557 22.9336 17.9014 22.6021 17.9554C22.2705 18.0093 21.9308 17.9694 21.6197 17.8401C21.2784 17.6805 20.986 17.4286 20.7741 17.1114C20.5621 16.7939 20.439 16.4231 20.418 16.0391C20.3952 15.5263 20.5641 15.0239 20.8902 14.6342L20.8914 14.6351L20.8968 14.624C20.9297 14.5567 20.9691 14.489 21.0112 14.4168L21.012 14.4155C21.0782 14.3019 21.1502 14.1784 21.2056 14.0372C21.912 12.5466 22.0682 11.3796 21.9681 10.4359C21.8681 9.49286 21.5126 8.77748 21.2043 8.19192L20.9417 7.65461L20.6785 6.98179C20.6722 6.96562 20.6579 6.95389 20.6408 6.9508C20.6238 6.94771 20.6063 6.9537 20.5947 6.96663L20.1109 7.50642L20.1108 7.50635L20.1089 7.50883L19.0103 8.90215C18.1303 9.89215 17.2065 11.017 16.3705 12.142L15.8436 12.7707L15.8436 12.7706L15.8423 12.7723C14.8754 14.031 13.9001 15.3443 13.5897 17.0219C13.3223 18.4338 13.5088 19.8962 14.1214 21.1907C14.5342 22.083 15.12 22.8803 15.8432 23.5344C16.495 24.1238 17.2461 24.5857 18.0592 24.8981H11C10.9823 24.8981 10.9659 24.9075 10.9569 24.9228C10.9479 24.9381 10.9477 24.957 10.9564 24.9725L15.4564 33.0244C15.4652 33.0402 15.4819 33.05 15.5 33.05H25.5C25.5181 33.05 25.5348 33.0402 25.5436 33.0244L30.0436 24.9725ZM20.3606 8.81166C20.3672 8.8019 20.3747 8.79091 20.4016 8.75697C20.6561 9.27874 20.9273 9.86022 21 10.6091C21.0759 11.3911 20.9356 12.3603 20.323 13.6358L20.3228 13.6357L20.3211 13.6401C20.267 13.7869 20.1809 13.9189 20.0695 14.0263L20.0691 14.0258L20.0644 14.032C19.7813 14.4035 19.5858 14.8367 19.493 15.298C19.4003 15.7592 19.4128 16.2361 19.5295 16.6916C19.6463 17.1471 19.8642 17.569 20.1663 17.9245C20.4685 18.2801 20.8468 18.5597 21.272 18.7415L21.2724 18.7417C21.7527 18.9418 22.277 19.0049 22.7897 18.9243C23.3023 18.8436 23.7837 18.6222 24.1828 18.2838L24.1829 18.2839L24.1853 18.2815C25.0441 17.4471 25.4031 16.1541 25.1969 14.454C26.2143 16.0465 27.2487 18.6649 25.8661 21.2801C25.2879 22.259 24.4667 23.0636 23.4859 23.6121C22.5051 24.1607 21.3999 24.4337 20.2826 24.4033C19.1718 24.3215 18.101 23.9452 17.1754 23.3115C16.2496 22.6776 15.501 21.808 15.0034 20.7881C14.4768 19.6652 14.3089 18.4011 14.5237 17.1751C14.7747 15.8497 15.6281 14.7274 16.5158 13.5619L16.5158 13.5619L16.6254 13.4178L16.6254 13.4178L16.6263 13.4167L17.1095 12.7427C17.8122 11.835 18.6084 10.8952 19.3414 10.0299C19.4791 9.86752 19.6144 9.70772 19.7465 9.55129C20.313 8.8804 20.3351 8.84894 20.3602 8.81227L20.3606 8.81166ZM28.3751 25.8978L24.9129 32.0503H16.0871L12.6249 25.8978H28.3751Z" fill="#F1F1F1" stroke="#F1F1F1" stroke-width="0.1" stroke-linejoin="round"/>
</svg>
