<svg width="42" height="42" viewBox="0 0 42 42" fill="none" xmlns="http://www.w3.org/2000/svg">
<rect width="42" height="42" rx="21" fill="#3558AF"/>
<path d="M30.3918 18.5081C29.5782 18.236 28.9867 17.4878 28.9867 16.6014C28.9867 15.4834 29.9252 14.5822 31.0683 14.5822C32.2115 14.5822 33.15 15.4834 33.15 16.6014C33.15 17.5826 32.4258 18.3946 31.4764 18.5787L29.4952 28.7727L29.4949 28.7745C29.4899 28.7986 29.4812 28.8175 29.4778 28.8247L29.4776 28.8251L29.4755 28.8298C29.4752 28.8307 29.4748 28.8316 29.4745 28.8327C29.4696 28.8469 29.4611 28.872 29.4483 28.8968C29.4298 28.9325 29.4081 28.9603 29.3899 28.9819L29.3897 28.9821L29.3894 28.9825C29.3862 28.9865 29.3646 29.014 29.3424 29.0335C29.3105 29.0619 29.2754 29.0811 29.2552 29.0921L29.2518 29.094L29.249 29.0955L29.249 29.0955C29.2493 29.0953 29.2492 29.0953 29.2488 29.0956C29.2485 29.0958 29.248 29.0961 29.2473 29.0965L29.2438 29.0986L29.2384 29.1019C29.2303 29.1067 29.2156 29.1154 29.1967 29.1228L29.1955 29.1232C29.1436 29.1431 29.0847 29.1566 29.0207 29.1566H12.9793C12.9151 29.1566 12.8566 29.143 12.8049 29.1234L12.8038 29.123C12.7851 29.1157 12.7702 29.1071 12.7619 29.102L12.7521 29.096L12.7498 29.0946L12.7493 29.0943L12.7491 29.0943L12.8213 28.9628M30.3918 18.5081L11.5478 18.3701C12.3117 18.1207 12.8633 17.4229 12.8633 16.6014C12.8633 15.5708 11.997 14.7322 10.9317 14.7322C9.86667 14.7322 9 15.5708 9 16.6014C9 17.539 9.71867 18.3154 10.651 18.448L12.652 28.7441C12.6535 28.7517 12.6567 28.7585 12.6599 28.7652C12.6623 28.7702 12.6646 28.7752 12.6663 28.7805C12.6717 28.797 12.677 28.8128 12.685 28.8276C12.696 28.8489 12.71 28.8673 12.7253 28.8857L12.7297 28.8911C12.7381 28.9015 12.7464 28.9117 12.7563 28.9205M30.3918 18.5081C29.8466 19.7363 29.246 20.6202 28.5619 21.2021C27.8533 21.805 27.0476 22.0902 26.0993 22.0902C25.1091 22.0902 24.2779 21.7337 23.5711 20.9875C22.8592 20.2359 22.269 19.0839 21.7828 17.4879L21.7827 17.4876C21.6762 17.1408 21.6275 16.8135 21.5786 16.4849L21.5777 16.479L21.5776 16.4787L21.5759 16.4668C21.5717 16.4392 21.5675 16.4117 21.5634 16.3844C22.8814 16.1303 23.8843 15.0042 23.8843 13.6456C23.8843 12.0995 22.5858 10.85 21 10.85C19.4142 10.85 18.116 12.0995 18.116 13.6456C18.116 15.0046 19.1199 16.1308 20.4382 16.3847C20.4328 16.4148 20.4275 16.4463 20.4226 16.4792C20.3738 16.8094 20.3248 17.1386 20.217 17.4884L20.2168 17.4889C19.731 19.0844 19.1409 20.2362 18.4291 20.9876C17.7224 21.7337 16.8912 22.0902 15.901 22.0902C14.9528 22.0902 14.1471 21.805 13.4384 21.2021C12.7543 20.6202 12.1536 19.7363 11.6082 18.5081C12.4221 18.236 13.0133 17.4877 13.0133 16.6014C13.0133 15.4834 12.0752 14.5822 10.9317 14.5822C9.78851 14.5822 8.85 15.4834 8.85 16.6014C8.85 17.5826 9.57429 18.3943 10.5236 18.5786M30.3918 18.5081L10.5236 18.5786M12.8213 28.9628L12.7516 29.0956C12.7263 29.0823 12.6909 29.0629 12.6569 29.0329C12.6569 29.0329 12.6569 29.0328 12.6569 29.0328L12.7563 28.9205M12.8213 28.9628C12.8256 28.9651 12.8296 28.9676 12.8337 28.9701C12.8415 28.9749 12.8492 28.9797 12.858 28.9831L12.7563 28.9205M12.8213 28.9628C12.798 28.9505 12.776 28.9379 12.7563 28.9205M10.5236 18.5786L12.5048 28.7727L12.505 28.7737C12.51 28.7987 12.5191 28.8183 12.5226 28.8257L12.5228 28.8261L12.5248 28.8304C12.53 28.8464 12.5386 28.8718 12.5523 28.8977C12.5708 28.933 12.5927 28.9609 12.6101 28.9818L10.5236 18.5786ZM26.0993 23.0353C27.8888 23.0353 29.1283 22.1678 30.0103 21.0591L28.6203 28.2122H13.3797L11.9899 21.059C12.8721 22.1676 14.1117 23.0353 15.901 23.0353C17.7289 23.0353 18.9467 22.0228 19.7493 20.8655C20.3893 19.9428 20.7726 18.9183 21 18.2183C21.2276 18.9186 21.6111 19.9428 22.2509 20.8653C23.0538 22.0228 24.2718 23.0353 26.0993 23.0353ZM29.0208 30.2049H12.9798C12.7173 30.2049 12.4965 30.4116 12.4965 30.6775C12.4965 30.9433 12.7173 31.15 12.9798 31.15H29.0205C29.283 31.15 29.5038 30.9433 29.5038 30.6775C29.5038 30.4117 29.2831 30.2049 29.0208 30.2049ZM19.0827 13.6456C19.0827 12.6302 19.9382 11.7951 21 11.7951C22.0622 11.7951 22.9177 12.6302 22.9177 13.6456C22.9177 14.6612 22.0622 15.4963 21 15.4963C19.9382 15.4963 19.0827 14.6612 19.0827 13.6456ZM9.81667 16.6014C9.81667 16.0138 10.3122 15.5273 10.9317 15.5273C11.5512 15.5273 12.0467 16.0138 12.0467 16.6014C12.0467 17.1883 11.5512 17.6748 10.9317 17.6748C10.3121 17.6748 9.81667 17.1883 9.81667 16.6014ZM31.0683 17.6748C30.4488 17.6748 29.9533 17.1883 29.9533 16.6014C29.9533 16.0138 30.4488 15.5273 31.0683 15.5273C31.6878 15.5273 32.1833 16.0138 32.1833 16.6014C32.1833 17.1883 31.6879 17.6748 31.0683 17.6748Z" fill="#F1F1F1" stroke="#F1F1F1" stroke-width="0.3"/>
</svg>
