<svg width="42" height="42" viewBox="0 0 42 42" fill="none" xmlns="http://www.w3.org/2000/svg">
<rect width="42" height="42" rx="21" fill="#339B56"/>
<path d="M20.1686 28.7621C15.8774 28.7621 12.3861 25.2758 12.3861 20.9907C12.3861 15.9334 16.6376 12.6658 23.2173 12.6658C26.9351 12.6658 28.2276 11.8205 28.9219 11.3663C29.253 11.1497 29.5652 10.9452 29.9657 11.0133C30.9304 11.1775 31 12.5919 31 14.9021C31 23.0626 26.5459 28.7621 20.1686 28.7621ZM29.6843 12.2453C29.6409 12.2729 29.5957 12.3025 29.5539 12.33C28.8156 12.8128 27.2791 13.8176 23.2173 13.8176C18.7528 13.8176 13.5395 15.6962 13.5395 20.9907C13.5395 24.6408 16.5133 27.6103 20.1686 27.6103C25.8668 27.6103 29.8465 22.3844 29.8465 14.9021C29.8465 14.3564 29.8465 12.8304 29.6843 12.2453Z" fill="#F1F1F1"/>
<path d="M11.5765 31C11.4929 31 11.4079 30.9816 11.3274 30.9431C11.0403 30.8055 10.9191 30.4615 11.0569 30.1748C12.6097 26.9419 16.3074 22.8877 19.8491 20.5346C20.1147 20.3584 20.4723 20.4308 20.6488 20.6952C20.8252 20.96 20.7533 21.3175 20.4881 21.4938C17.1539 23.7088 13.5465 27.655 12.0969 30.673C11.9978 30.8793 11.7913 31 11.5765 31Z" fill="#F1F1F1"/>
</svg>
