<svg width="42" height="42" viewBox="0 0 42 42" fill="none" xmlns="http://www.w3.org/2000/svg">
<rect width="42" height="42" rx="21" fill="#B184DD"/>
<path d="M26.9867 17.8546C25.2515 17.8546 23.84 19.2657 23.84 21C23.84 22.7344 25.2518 24.1455 26.9867 24.1455C28.7219 24.1455 30.1337 22.7344 30.1337 21C30.1337 19.2657 28.7219 17.8546 26.9867 17.8546ZM26.9867 22.9461C25.9133 22.9461 25.04 22.0732 25.04 21C25.04 19.9269 25.9133 19.054 26.9867 19.054C28.0604 19.054 28.9337 19.9269 28.9337 21C28.9337 22.0732 28.0604 22.9461 26.9867 22.9461Z" fill="#F1F1F1"/>
<path d="M15.0115 17.8546C13.2763 17.8546 11.8645 19.2657 11.8645 21C11.8645 22.7344 13.2763 24.1455 15.0115 24.1455C16.7467 24.1455 18.1582 22.7344 18.1582 21C18.1582 19.2657 16.7464 17.8546 15.0115 17.8546ZM15.0115 22.9461C13.9378 22.9461 13.0645 22.0732 13.0645 21C13.0645 19.9269 13.9378 19.054 15.0115 19.054C16.0849 19.054 16.9582 19.9269 16.9582 21C16.9582 22.0732 16.0849 22.9461 15.0115 22.9461Z" fill="#F1F1F1"/>
<path d="M33.9 10.0114C33.5688 10.0114 33.3 10.2801 33.3 10.6111C33.3 12.2144 32.0676 13.5337 30.5001 13.6762C28.3023 10.8348 24.8622 9 20.9994 9C17.1366 9 13.6962 10.8348 11.4987 13.6759C9.9318 13.5331 8.7 12.2138 8.7 10.6111C8.7 10.2801 8.4312 10.0114 8.1 10.0114C7.7688 10.0114 7.5 10.2801 7.5 10.6111C7.5 12.6144 8.8863 14.2957 10.7493 14.7589C9.636 16.5784 8.9937 18.7154 8.9937 21C8.9937 27.6168 14.3796 33 20.9997 33C27.6195 33 33.0054 27.6168 33.0054 21C33.0054 18.7157 32.3631 16.5787 31.2501 14.7592C33.1131 14.2963 34.5 12.6147 34.5 10.6111C34.5 10.2801 34.2312 10.0114 33.9 10.0114ZM20.9994 10.1994C24.2262 10.1994 27.1251 11.6222 29.1066 13.8708C25.3926 14.5439 22.2639 15.6552 21 19.3529C19.7358 15.6546 16.6068 14.5436 12.8922 13.8708C14.874 11.6222 17.7726 10.1994 20.9994 10.1994ZM20.9994 31.8006C15.0411 31.8006 10.1934 26.9556 10.1934 21C10.1934 18.7568 10.8816 16.6717 12.0573 14.9433C16.9623 15.7589 20.4 16.9676 20.4 23.5457C20.4 23.8768 20.6688 24.1454 21 24.1454C21.3312 24.1454 21.6 23.8768 21.6 23.5457C21.6 16.9682 25.0371 15.7592 29.9415 14.9436C31.1169 16.672 31.8051 18.7571 31.8051 21C31.8051 26.9553 26.9577 31.8006 20.9994 31.8006Z" fill="#F1F1F1"/>
</svg>
