<svg width="42" height="42" viewBox="0 0 42 42" fill="none" xmlns="http://www.w3.org/2000/svg">
<rect width="42" height="42" rx="21" fill="#DFB315"/>
<path d="M19.2255 10.9515L19.2255 10.9515C19.1882 10.6834 19.3751 10.4359 19.6432 10.3985M19.2255 10.9515L19.5064 12.2426C19.5334 12.4381 19.7007 12.5791 19.8922 12.5791C19.9101 12.5791 19.9284 12.5779 19.9467 12.5753L19.9605 12.6743C19.9606 12.6743 19.9607 12.6743 19.9608 12.6743C20.2288 12.6368 20.4156 12.3893 20.3783 12.1213L20.3783 12.1213L20.1965 10.8165L20.0974 10.8302L20.1965 10.8164L20.1965 10.8164C20.1594 10.548 19.9116 10.3607 19.6432 10.3985M19.2255 10.9515L19.4073 12.2563L19.2255 10.9515ZM19.6432 10.3985C19.6432 10.3985 19.6432 10.3985 19.6431 10.3985L19.6571 10.4975L19.6433 10.3985C19.6433 10.3985 19.6432 10.3985 19.6432 10.3985Z" fill="#F1F1F1" stroke="white" stroke-width="0.2"/>
<path d="M12.8188 13.4314L12.8188 13.4314C13.014 13.2443 13.3241 13.2499 13.5119 13.4449L12.8188 13.4314ZM12.8188 13.4314L12.8186 13.4316C12.6239 13.6196 12.6177 13.9298 12.8057 14.1248C12.8057 14.1248 12.8057 14.1248 12.8058 14.1248L13.7197 15.0736L12.8188 13.4314ZM14.4259 14.3937L13.5119 13.4449L13.7198 15.0737C13.816 15.1737 13.9445 15.224 14.0729 15.224C14.1952 15.224 14.3177 15.1785 14.4129 15.0871L14.4131 15.0869C14.6078 14.899 14.6139 14.5888 14.4259 14.3938C14.4259 14.3938 14.4259 14.3938 14.4259 14.3937Z" fill="#F1F1F1" stroke="white" stroke-width="0.2"/>
<path d="M9.47798 20.4655L9.47802 20.4655L10.7749 20.6956C10.7749 20.6956 10.775 20.6956 10.7751 20.6956C10.8043 20.7009 10.8333 20.7033 10.8613 20.7033C11.0948 20.7033 11.3014 20.5363 11.3437 20.2988L11.3438 20.2987C11.3909 20.032 11.2131 19.7778 10.9467 19.7304L10.9466 19.7304L9.64953 19.5003L9.63192 19.5987L9.64939 19.5002L9.64946 19.5003C9.38162 19.4524 9.12849 19.6313 9.08094 19.897L9.0809 19.8972C9.03374 20.1639 9.21161 20.4181 9.47798 20.4655Z" fill="#F1F1F1" stroke="white" stroke-width="0.2"/>
<path d="M31.286 17.2816L31.2858 17.2817L30.1011 17.8579L30.101 17.858C29.8577 17.9767 29.7564 18.2696 29.8747 18.5132L29.8747 18.5134C29.9597 18.6877 30.1343 18.7891 30.3158 18.7891C30.3879 18.7891 30.461 18.7733 30.5299 18.7398L30.5301 18.7398L31.7147 18.1636L31.7148 18.1635C31.9582 18.0448 32.0594 17.7519 31.9412 17.5083L31.9411 17.5081C31.8226 17.2648 31.5292 17.164 31.286 17.2816Z" fill="#F1F1F1" stroke="white" stroke-width="0.2"/>
<path d="M25.6643 13.3199L25.6643 13.3199L26.2841 12.1573L25.6643 13.3199ZM25.6643 13.3199C25.537 13.5587 25.6271 13.856 25.8663 13.9834L25.8665 13.9835M25.6643 13.3199L25.8665 13.9835M25.8665 13.9835C25.9395 14.0221 26.0185 14.0409 26.0965 14.0409C26.2714 14.0409 26.4412 13.9468 26.5294 13.7814L26.5294 13.7814M25.8665 13.9835L26.5294 13.7814M26.5294 13.7814L27.1493 12.6186L27.1493 12.6186M26.5294 13.7814L27.1493 12.6186M27.1493 12.6186C27.2766 12.3798 27.1864 12.0825 26.9472 11.9551L26.947 11.955M27.1493 12.6186L26.947 11.955M26.947 11.955C26.7085 11.8289 26.4115 11.9179 26.2841 12.1572L26.947 11.955Z" fill="#F1F1F1" stroke="white" stroke-width="0.2"/>
<path d="M37.8272 21.9773L37.8273 21.9774C38.0698 22.0975 38.1692 22.3915 38.049 22.6342C37.929 22.8765 37.6351 22.976 37.3923 22.8564L37.3922 22.8563C36.8315 22.5789 34.831 21.7453 32.6047 22.6606C30.9961 23.3234 30.1073 24.5537 29.6346 25.514C31.5528 25.6361 32.8932 26.863 32.9119 26.8802L32.9124 26.8807C33.1103 27.0654 33.121 27.3752 32.9365 27.5734L32.9365 27.5734C32.8401 27.6768 32.709 27.7294 32.5777 27.7294C32.4583 27.7294 32.3383 27.6859 32.2439 27.5981C32.2222 27.5782 30.824 26.3027 28.9382 26.501L28.9373 26.5011C28.6974 26.5241 28.4605 26.5705 28.2304 26.6391L28.23 26.6393C28.2245 26.6409 28.2195 26.6419 28.2151 26.6426C28.212 26.6437 28.2087 26.6449 28.205 26.6459M37.8272 21.9773L29.526 25.5083C30.0005 24.5292 30.9064 23.2521 32.5667 22.5681C34.8332 21.6363 36.8672 22.485 37.4365 22.7667C37.6299 22.8619 37.8639 22.7827 37.9594 22.5898C38.055 22.3966 37.976 22.1626 37.7829 22.067C37.1391 21.7487 34.8395 20.7911 32.2698 21.8463C30.8153 22.4456 29.8725 23.44 29.272 24.3689C29.2926 24.2807 29.3119 24.1922 29.3298 24.1034M37.8272 21.9773C37.1746 21.6548 34.8417 20.6821 32.2318 21.7538L32.2317 21.7538C30.864 22.3174 29.9421 23.2248 29.3298 24.1034M37.8272 21.9773L29.3298 24.1034M28.205 26.6459C28.2034 26.6464 28.2017 26.6468 28.1999 26.6472L28.1992 26.6439C28.1971 26.644 28.1955 26.644 28.1949 26.644L28.1947 26.644C28.1927 26.6439 28.195 26.644 28.1977 26.6438C28.1981 26.6438 28.1986 26.6438 28.1991 26.6437L28.1774 26.5498M28.205 26.6459C26.8577 27.0567 25.7849 28.1791 25.405 29.5816L25.4049 29.5819C25.3458 29.7976 25.3055 30.0031 25.2811 30.2108L25.2811 30.2109C25.2555 30.4286 25.0885 30.6034 24.8715 30.6379M28.205 26.6459C28.2055 26.6458 28.206 26.6456 28.2065 26.6455L28.206 26.6436L13.1901 29.5129M28.1774 26.5498L28.2058 26.643C28.2082 26.6426 28.211 26.642 28.2139 26.6412L28.1887 26.5445C28.1867 26.545 28.185 26.5461 28.1832 26.5471C28.1814 26.5482 28.1795 26.5493 28.1774 26.5498ZM28.1774 26.5498C26.7954 26.9705 25.6972 28.1203 25.3085 29.5555C25.2481 29.7758 25.2068 29.9861 25.1818 30.1992C25.1614 30.3726 25.0284 30.5117 24.8558 30.5391M24.8558 30.5391C24.8352 30.5425 24.8144 30.5441 24.794 30.5441C24.6439 30.5441 24.5046 30.4572 24.44 30.3177C24.3718 30.1698 24.291 30.0182 24.2001 29.8669C23.2161 28.1637 21.4874 27.0601 19.5722 26.9088M24.8558 30.5391L24.8722 30.6378C24.872 30.6378 24.8717 30.6378 24.8715 30.6379M24.8558 30.5391L24.8715 30.6379M19.5722 26.9088C18.0416 26.7884 16.4814 27.2994 15.2943 28.3169M19.5722 26.9088L19.5644 27.0085C19.5644 27.0085 19.5644 27.0085 19.5644 27.0085M19.5722 26.9088L19.5644 27.0085M15.2943 28.3169C15.2938 28.3174 15.2932 28.3176 15.2926 28.3179C15.292 28.3182 15.2914 28.3184 15.2908 28.3189M15.2943 28.3169L15.3588 28.3922C15.3578 28.3932 15.3568 28.3941 15.3557 28.395L15.2908 28.3189M15.2943 28.3169L15.3599 28.3912C15.3642 28.3871 15.3673 28.3833 15.3693 28.3807C15.3704 28.3793 15.3714 28.3779 15.372 28.3769L15.3712 28.3783L15.3673 28.3835C15.3655 28.3858 15.3632 28.3886 15.3602 28.3916L15.3605 28.3919C15.3601 28.3922 15.3597 28.3925 15.3593 28.3929M15.2908 28.3189C15.2896 28.32 15.2891 28.3216 15.2878 28.3227M15.2908 28.3189L15.3552 28.3954C15.3536 28.3968 15.352 28.398 15.3505 28.3992L15.2878 28.3227M15.2878 28.3227C15.1929 28.4004 15.1037 28.4842 15.0143 28.5704M15.2878 28.3227L15.3504 28.3992C15.3457 28.4026 15.3416 28.405 15.3387 28.4066C15.3371 28.4074 15.3356 28.4082 15.3345 28.4087M15.0143 28.5704C14.6026 28.9679 14.2472 29.4301 13.9576 29.9446C13.8859 30.0719 13.7535 30.1435 13.617 30.1435C13.5523 30.1435 13.4865 30.1275 13.4261 30.0932M15.0143 28.5704L15.0837 28.6424M15.0143 28.5704L15.0838 28.6423C15.0838 28.6423 15.0838 28.6424 15.0837 28.6424M13.4261 30.0932C13.2382 29.9877 13.1715 29.7499 13.2773 29.562M13.4261 30.0932L13.3767 30.1802C13.3768 30.1802 13.3769 30.1803 13.377 30.1803M13.4261 30.0932L13.3771 30.1804C13.3771 30.1804 13.377 30.1803 13.377 30.1803M13.2773 29.562C13.5626 29.055 13.9083 28.5958 14.3007 28.1873M13.2773 29.562L13.1902 29.5129M13.2773 29.562L13.1901 29.5129M14.3007 28.1873C14.2112 27.9227 14.0741 27.5795 13.8697 27.1965M14.3007 28.1873L14.2286 28.118C14.2145 28.1327 14.2004 28.1475 14.1864 28.1623M14.3007 28.1873L14.206 28.2193C14.1997 28.2007 14.1932 28.1817 14.1864 28.1623M13.8697 27.1965C13.7286 26.9901 13.6013 26.7831 13.49 26.58M13.8697 27.1965L13.7815 27.2436C13.7823 27.2452 13.7832 27.2468 13.784 27.2484M13.8697 27.1965L13.7872 27.2529C13.7861 27.2514 13.7851 27.2499 13.784 27.2484M13.49 26.58L13.4878 26.5769M13.49 26.58L13.4636 26.5945M13.49 26.58L13.4099 26.6396C13.4152 26.6461 13.4203 26.6507 13.4239 26.6536L13.4287 26.6572L13.4271 26.6561C13.4262 26.6555 13.4251 26.6547 13.4239 26.6538C13.4229 26.653 13.4219 26.6522 13.4207 26.6513C13.4173 26.6485 13.4131 26.6447 13.4087 26.6397M13.4878 26.5769C13.4871 26.576 13.4863 26.5754 13.4854 26.5748C13.4845 26.5742 13.4836 26.5736 13.4829 26.5727C13.1191 26.0567 12.6818 25.6066 12.1832 25.2346M13.4878 26.5769L13.4636 26.5945M13.4878 26.5769L13.4627 26.595L13.4636 26.5945M12.1832 25.2346C9.72644 23.4111 6.83258 24.2727 6.51056 24.3768C6.30495 24.4435 6.08544 24.3311 6.01913 24.1256C5.95263 23.9206 6.06505 23.7007 6.27008 23.6344M12.1832 25.2346L12.1234 25.3148L12.1236 25.3149M12.1832 25.2346L12.1236 25.3149M6.27008 23.6344C6.62765 23.5186 9.81438 22.5701 12.5679 24.5491C12.5553 24.4998 12.5432 24.4505 12.5315 24.401M6.27008 23.6344L6.23931 23.5393C6.23929 23.5393 6.23928 23.5393 6.23926 23.5393M6.27008 23.6344L6.23926 23.5393M12.5315 24.401C12.5731 24.4298 12.6146 24.4592 12.6559 24.4893C12.4871 23.8152 12.3985 23.1189 12.3985 22.4168C12.3985 17.7286 16.2112 13.9146 20.8977 13.9146C25.5859 13.9146 29.4 17.7286 29.4 22.4168C29.4 23.0617 29.3234 23.704 29.1785 24.3293C29.2267 24.2544 29.2771 24.179 29.3298 24.1034M12.5315 24.401C12.3786 23.7543 12.2985 23.0883 12.2985 22.4168C12.2985 17.6734 16.1559 13.8146 20.8977 13.8146C25.6412 13.8146 29.5 17.6733 29.5 22.4168C29.5 22.9844 29.4414 23.5498 29.3298 24.1034M12.5315 24.401C9.75834 22.4803 6.59687 23.4234 6.23926 23.5393M29.3298 24.1034L6.54141 24.4719C6.28319 24.5557 6.00729 24.4144 5.92399 24.1564C5.84048 23.8988 5.98175 23.6226 6.23926 23.5393M12.1236 25.3149C12.6136 25.6805 13.0435 26.1228 13.4012 26.6303L13.4012 26.6303C13.4037 26.6338 13.4062 26.6369 13.4087 26.6397M12.1236 25.3149L13.4636 26.5945M13.4087 26.6397C13.5192 26.8405 13.6451 27.0449 13.784 27.2484M13.4087 26.6397L13.1902 29.5129M13.784 27.2484C13.9697 27.597 14.0987 27.9118 14.1864 28.1623M14.1864 28.1623C13.8057 28.5655 13.4694 29.0166 13.1902 29.5129M13.1902 29.5129L13.1901 29.5129M13.1901 29.5129C13.0573 29.7489 13.1411 30.0477 13.377 30.1803M13.377 30.1803C13.453 30.2234 13.5358 30.2435 13.617 30.2435C13.7881 30.2435 13.9546 30.1537 14.0447 29.9937C14.3297 29.4874 14.6792 29.0329 15.0837 28.6424M15.0837 28.6424C15.1727 28.5566 15.2595 28.4751 15.3511 28.4M15.3511 28.4C15.3534 28.3982 15.3554 28.3964 15.3572 28.3946M15.3511 28.4L15.3507 28.3995C15.3528 28.3981 15.355 28.3965 15.3572 28.3946M15.3511 28.4C15.3511 28.4 15.3511 28.4 15.3511 28.4001L15.3507 28.3995C15.3472 28.4019 15.3441 28.4038 15.3415 28.4052L15.3358 28.4081L15.3345 28.4087M15.3572 28.3946C15.3579 28.3941 15.3586 28.3935 15.3593 28.3929M15.3572 28.3946C15.3579 28.394 15.3586 28.3933 15.3592 28.3927L15.3593 28.3929M15.3593 28.3929C16.5265 27.3924 18.0606 26.8902 19.5644 27.0085M19.5644 27.0085C21.4459 27.1571 23.1455 28.2415 24.1135 29.9169L24.1144 29.9184C24.2036 30.0668 24.2826 30.2153 24.3492 30.3596L24.3492 30.3597C24.4304 30.5349 24.6054 30.6441 24.794 30.6441C24.8191 30.6441 24.8452 30.6422 24.8715 30.6379M15.3345 28.4087L15.3334 28.4092L15.3345 28.4087ZM28.2018 26.5433C28.4381 26.4728 28.6814 26.4252 28.9278 26.4015L28.2018 26.5433ZM32.8634 27.5052C33.0103 27.3474 33.0017 27.1009 32.8441 26.9538L32.8634 27.5052ZM24.6048 28.8689C23.443 27.2357 21.6308 26.1883 19.6419 26.0309L19.6418 26.0309C19.4699 26.0174 19.2977 26.0104 19.1254 26.0104C17.6888 26.0104 16.2626 26.4846 15.0941 27.3513C14.9189 27.1469 14.7595 26.9389 14.6178 26.73C14.4889 26.4966 14.36 26.2881 14.2296 26.1025C14.2247 26.0949 14.219 26.0871 14.2145 26.081C13.6026 24.9694 13.279 23.7031 13.279 22.4168C13.279 18.214 16.6969 14.795 20.8977 14.795C25.1003 14.795 28.5195 18.214 28.5195 22.4168C28.5195 23.5954 28.2593 24.7203 27.7461 25.7642C26.3056 26.2629 25.1444 27.4177 24.6048 28.8689Z" fill="#F1F1F1" stroke="white" stroke-width="0.2"/>
</svg>
