<svg width="42" height="42" viewBox="0 0 42 42" fill="none" xmlns="http://www.w3.org/2000/svg">
<rect width="42" height="42" rx="21" fill="#84ADDD"/>
<path d="M5.99982 20.7275C9.47821 16.5707 14.9088 13.9 21 13.9C27.0911 13.9 32.5218 16.5707 36.0001 20.7275L5.99982 20.7275ZM5.99982 20.7275H5.99982M5.99982 20.7275H5.99982M5.99982 20.7275C5.93554 20.8042 5.9 20.9003 5.9 21C5.9 21.0997 5.93554 21.1958 5.99982 21.2725H5.99982C9.47821 25.4293 14.9088 28.1 21 28.1C27.0912 28.1 32.5218 25.4293 36.0002 21.2725L5.99982 20.7275ZM36.1 21C36.1 21.0997 36.0645 21.1958 36.0002 21.2725L36.1 21ZM36.1 21C36.1 20.9003 36.0645 20.8042 36.0002 20.7275L36.1 21ZM6.95031 21C9.58472 17.9864 13.3173 15.8353 17.5864 15.0753C15.4066 16.2275 13.9234 18.4487 13.9234 21C13.9234 23.5513 15.4066 25.7725 17.5864 26.9247C13.3173 26.1647 9.58472 24.0136 6.95031 21ZM35.0497 21C32.4153 24.0136 28.6827 26.1647 24.4136 26.9247C26.5934 25.7725 28.0766 23.5513 28.0766 21C28.0766 18.4487 26.5934 16.2275 24.4136 15.0753C28.6827 15.8353 32.4153 17.9864 35.0497 21ZM21 15.1C24.421 15.1 27.179 17.7418 27.179 21C27.179 24.2582 24.421 26.9 21 26.9C17.579 26.9 14.821 24.2582 14.821 21C14.821 17.7418 17.579 15.1 21 15.1ZM21 17.9C19.2193 17.9 17.7605 19.2876 17.7605 21C17.7605 22.7124 19.2193 24.1 21 24.1C22.7807 24.1 24.2395 22.7124 24.2395 21C24.2395 19.2876 22.7807 17.9 21 17.9ZM21 18.7667C22.3018 18.7667 23.3418 19.7669 23.3418 21C23.3418 22.2332 22.3018 23.2333 21 23.2333C19.6982 23.2333 18.6582 22.2332 18.6582 21C18.6582 19.7669 19.6982 18.7667 21 18.7667Z" fill="#F1F1F1" stroke="white" stroke-width="0.2"/>
</svg>
